#!OML:ASF Y:\EmotionMaleHayes\Project 1\Capture day 1\Session 1\Male1.ASF
:FULLY-SPECIFIED
:DEGREES
71
root -35.6148 16.0291 0.332858 -36.3045 77.9588 -41.9952
lowerback 20.5959 4.49067 6.87432
upperback 2.60657 7.89354 2.95106
thorax -8.12511 3.6951 -2.77535
lowerneck -30.371 1.26216 2.65678
upperneck 13.2599 2.16738 -6.84952
head 9.14841 0.357121 -2.4948
rclavicle 2.94201e-014 4.13472e-014
rhumerus -17.8021 18.9008 -85.622
rradius 97.9285
rwrist -9.12706
rhand -32.2979 -17.7524
rfingers 7.12502
rthumb -5.53636 -47.6601
lclavicle 2.94201e-014 4.13472e-014
lhumerus -79.7004 -17.9388 100.274
lradius 87.3565
lwrist 22.7912
lhand -30.8457 -20.4847
lfingers 7.12502
lthumb -4.13414 9.45495
rfemur 0 0 0
rtibia 0
rfoot 0 0
rtoes 0
lfemur 0 0 0
ltibia 0
lfoot 0 0
ltoes 0
72
root -35.1128 16.151 0.307924 -33.8908 77.5699 -39.7233
lowerback 20.4535 5.05302 6.92147
upperback 2.33939 8.59998 2.66352
thorax -8.22879 4.0088 -3.28008
lowerneck -30.6188 0.785065 2.33362
upperneck 14.0738 1.55226 -6.25458
head 9.43114 0.103638 -2.34467
rclavicle -9.20373e-014 1.35174e-014
rhumerus -17.159 18.572 -85.81
rradius 99.2189
rwrist -10.1728
rhand -32.923 -17.5194
rfingers 7.12502
rthumb -6.13987 -47.4104
lclavicle -9.20373e-014 1.35174e-014
lhumerus -82.8243 -19.1823 100.731
lradius 88.1465
lwrist 22.1255
lhand -30.7704 -20.1407
lfingers 7.12502
lthumb -4.06142 9.80037
rfemur 0 0 0
rtibia 0
rfoot 0 0
rtoes 0
lfemur 0 0 0
ltibia 0
lfoot 0 0
ltoes 0
73
root -34.6095 16.2831 0.272108 -30.2142 77.5391 -36.2645
lowerback 20.3353 5.55405 6.70913
upperback 1.96601 9.1542 2.19067
thorax -8.47568 4.24181 -3.81356
lowerneck -30.649 0.320957 1.88618
upperneck 14.7426 0.974406 -5.56828
head 9.63702 -0.119167 -2.13212
rclavicle 2.18663e-015 1.59028e-014
rhumerus -16.6481 18.7027 -85.8734
rradius 100.785
rwrist -11.8071
rhand -32.6815 -18.6601
rfingers 7.12502
rthumb -5.90676 -48.5577
lclavicle 2.18663e-015 1.59028e-014
lhumerus -86.0334 -20.246 101.125
lradius 89.1119
lwrist 21.9342
lhand -31.0344 -20.2518
lfingers 7.12502
lthumb -4.31631 9.68418
rfemur 0 0 0
rtibia 0
rfoot 0 0
rtoes 0
lfemur -46.914 16.4724 -11.9021
ltibia 75.683
lfoot 168.673 -8.29832
ltoes -13.9379
74
root -34.0956 16.4159 0.234732 -26.1431 77.6148 -32.5566
lowerback 19.7341 6.04514 6.23064
upperback 1.69811 9.60633 1.81962
thorax -8.40954 4.46176 -4.00101
lowerneck -30.6402 -0.0757057 1.51864
upperneck 15.209 0.525217 -5.22283
head 9.78089 -0.3136 -2.03033
rclavicle 4.19436e-014 2.06736e-014
rhumerus -16.0142 19.173 -85.5328
rradius 102.374
rwrist -13.9556
rhand -32.9077 -19.6643
rfingers 7.12502
rthumb -6.12513 -49.5557
lclavicle 4.19436e-014 2.06736e-014
lhumerus -88.9187 -20.8996 101.569
lradius 89.9845
lwrist 22.0979
lhand -32.5099 -21.7708
lfingers 7.12502
lthumb -5.74107 8.13139
rfemur 0 0 0
rtibia 0
rfoot 0 0
rtoes 0
lfemur -48.7644 15.9094 -12.9792
ltibia 79.6642
lfoot 168.471 -9.09628
ltoes -16.7827
75
root -33.5836 16.5632 0.199014 -23.9501 77.7384 -30.3276
lowerback 19.5852 6.36262 6.14041
upperback 1.58574 9.95697 1.48354
thorax -8.3692 4.62423 -4.37757
lowerneck -30.7106 -0.385769 1.40475
upperneck 15.5808 0.122378 -5.04999
head 9.90949 -0.49098 -2.02355
rclavicle -2.98177e-014 8.74653e-015
rhumerus -15.4695 19.4072 -85.339
rradius 103.91
rwrist -16.2972
rhand -33.1864 -20.0531
rfingers 7.12502
rthumb -6.39418 -49.9366
lclavicle -2.98177e-014 8.74653e-015
lhumerus -91.599 -21.5461 101.872
lradius 90.9762
lwrist 22.5639
lhand -31.3732 -21.1343
lfingers 7.12502
lthumb -4.64349 8.7948
rfemur 0 0 0
rtibia 0
rfoot 0 0
rtoes 0
lfemur -49.6076 15.031 -13.5336
ltibia 85.1871
lfoot 159.016 -43.9063
ltoes -15.1297
76
root -33.0661 16.707 0.15956 -21.4507 77.8329 -27.9443
lowerback 19.2687 6.71835 6.09885
upperback 1.43603 10.3493 1.05753
thorax -8.24453 4.80853 -4.86027
lowerneck -30.8807 -0.759535 1.19014
upperneck 16.0634 -0.36876 -4.68807
head 10.0928 -0.692333 -1.95075
rclavicle -1.17283e-014 1.59028e-015
rhumerus -15.1214 19.6102 -85.1671
rradius 105.476
rwrist -18.5544
rhand -33.2581 -20.31
rfingers 7.12502
rthumb -6.46342 -50.1914
lclavicle -1.17283e-014 1.59028e-015
lhumerus -94.2597 -22.3329 102.127
lradius 92.1864
lwrist 23.3174
lhand -30.9218 -21.0847
lfingers 7.12502
lthumb -4.20765 8.85351
rfemur 0 0 0
rtibia 0
rfoot 0 0
rtoes 0
lfemur -50.1976 14.186 -14.0983
ltibia 89.4975
lfoot 114.293 -73.6872
ltoes -10.0649
77
root -32.5467 16.8428 0.12233 -19.4349 78.1026 -26.1758
lowerback 18.7972 6.97834 6.08799
upperback 1.25028 10.6182 0.650363
thorax -8.08191 4.93626 -5.28731
lowerneck -31.1359 -1.18156 0.843555
upperneck 16.5875 -0.904757 -4.18542
head 10.3092 -0.903348 -1.81589
rclavicle -6.67916e-014 -2.62396e-014
rhumerus -14.8879 19.8934 -84.913
rradius 107.043
rwrist -20.5954
rhand -32.9991 -20.4891
rfingers 7.12502
rthumb -6.21335 -50.378
lclavicle -6.67916e-014 -2.62396e-014
lhumerus -96.64 -22.9443 102.315
lradius 93.1433
lwrist 23.8584
lhand -31.1915 -21.8016
lfingers 7.12502
lthumb -4.46802 8.13125
rfemur 0 0 0
rtibia 0
rfoot 0 0
rtoes 0
lfemur -50.6647 13.1105 -14.5973
ltibia 88.5578
lfoot 16.0558 -59.7374
ltoes -8.97226
78
root -32.0255 16.9742 0.0941645 -18.3121 78.4252 -25.1758
lowerback 17.5438 7.09932 6.13697
upperback 1.77989 10.6589 0.400796
thorax -6.75674 5.05385 -5.33507
lowerneck -31.7748 -1.52039 0.561024
upperneck 16.5453 -1.32497 -3.82039
head 10.3866 -1.0688 -1.71744
rclavicle -6.06293e-014 -3.18055e-015
rhumerus -13.6833 20.26 -84.2143
rradius 108.552
rwrist -22.4161
rhand -32.3389 -20.6166
rfingers 7.12502
rthumb -5.57592 -50.5233
lclavicle -6.06293e-014 -3.18055e-015
lhumerus -97.5175 -23.3509 102.004
lradius 93.8986
lwrist 24.2695
lhand -31.5804 -22.2595
lfingers 7.12502
lthumb -4.84358 7.66509
rfemur 0 0 0
rtibia 0
rfoot 0 0
rtoes 0
lfemur -50.6241 12.0019 -14.8029
ltibia 82.4088
lfoot -1.71044 -26.3477
ltoes -11.0056
79
root -31.4987 17.0999 0.06679 -17.6684 78.6219 -24.5624
lowerback 18.0001 7.29861 6.08979
upperback 1.03165 10.9428 0.146024
thorax -7.7436 5.10218 -5.7794
lowerneck -31.2745 -1.92015 0.245789
upperneck 17.3723 -1.83073 -3.42043
head 10.6045 -1.27324 -1.61615
rclavicle 2.26615e-014 3.97569e-016
rhumerus -15.2204 20.4672 -84.5435
rradius 110.292
rwrist -23.6079
rhand -31.4968 -19.9868
rfingers 7.12502
rthumb -4.76282 -49.9133
lclavicle 2.26615e-014 3.97569e-016
lhumerus -100.434 -23.5731 102.376
lradius 94.7235
lwrist 24.5007
lhand -31.5703 -22.2256
lfingers 7.12502
lthumb -4.83381 7.69927
rfemur 0 0 0
rtibia 0
rfoot 0 0
rtoes 0
lfemur -50.0284 11.1066 -14.7963
ltibia 75.0554
lfoot -9.77764 7.99879
ltoes -10.3228
80
root -30.9597 17.2194 0.0334929 -17.5824 78.6891 -24.503
lowerback 17.3396 7.45571 6.15554
upperback 1.07931 11.1124 0.101765
thorax -7.2876 5.21478 -5.779
lowerneck -31.6735 -2.1649 -0.154839
upperneck 18.0266 -2.01425 -3.25305
head 10.917 -1.36758 -1.54164
rclavicle 1.25234e-014 2.62396e-014
rhumerus -15.4908 21.1 -84.134
rradius 111.579
rwrist -23.6173
rhand -31.0567 -18.9176
rfingers 7.12502
rthumb -4.33788 -48.8532
lclavicle 1.25234e-014 2.62396e-014
lhumerus -101.772 -23.6088 102.6
lradius 95.2231
lwrist 24.6438
lhand -31.7352 -22.8099
lfingers 7.12502
lthumb -4.99307 7.11127
rfemur 0 0 0
rtibia 0
rfoot 0 0
rtoes 0
lfemur -49.005 10.3115 -14.6148
ltibia 69.0425
lfoot -7.92776 8.12442
ltoes -10.2881
81
root -30.4229 17.3337 0.00471027 -17.798 78.9098 -24.6443
lowerback 17.0512 7.52921 6.20981
upperback 0.988027 11.1974 0.0326041
thorax -7.19394 5.25775 -5.85665
lowerneck -31.9078 -2.46217 -0.416624
upperneck 18.6235 -2.36131 -2.99418
head 11.1805 -1.51202 -1.48128
rclavicle 8.22969e-014 -2.0276e-014
rhumerus -16.2077 22.0575 -84.0125
rradius 112.706
rwrist -21.7541
rhand -31.8602 -19.0008
rfingers 7.12502
rthumb -5.11374 -48.9191
lclavicle 8.22969e-014 -2.0276e-014
lhumerus -103.182 -23.6117 102.855
lradius 95.7774
lwrist 24.9073
lhand -32.3811 -23.9015
lfingers 7.12502
lthumb -5.61668 6.00408
rfemur 0 0 0
rtibia 0
rfoot 0 0
rtoes 0
lfemur -47.6125 9.42417 -14.4127
ltibia 62.9068
lfoot -6.21829 7.99061
ltoes -8.97578
82
root -29.8895 17.4356 -0.0144184 -18.8657 79.0059 -25.4991
lowerback 16.7823 7.65527 6.33462
upperback 1.02457 11.3705 0.058262
thorax -6.96658 5.35537 -5.87616
lowerneck -32.0862 -2.84333 -0.872622
upperneck 19.1242 -2.7853 -2.56365
head 11.4069 -1.67966 -1.33757
rclavicle 6.02318e-014 2.54444e-014
rhumerus -17.0025 22.6297 -83.758
rradius 114.034
rwrist -21.3144
rhand -31.855 -18.4583
rfingers 7.12502
rthumb -5.10873 -48.3767
lclavicle 6.02318e-014 2.54444e-014
lhumerus -104.228 -23.8571 103.011
lradius 96.3475
lwrist 24.7766
lhand -32.9444 -24.5529
lfingers 7.12502
lthumb -6.16057 5.3375
rfemur 0 0 0
rtibia 0
rfoot 0 0
rtoes 0
lfemur -45.8535 8.80842 -13.9312
ltibia 56.6223
lfoot -4.6063 7.74033
ltoes -7.7301
